<svg xmlns="http://www.w3.org/2000/svg" width="105" height="105" viewBox="0 0 105 105"><g transform="translate(-771 1847) rotate(-90)"><g transform="translate(1742 771)" fill="none" stroke="#b2b2b2" stroke-width="3"><circle cx="52.5" cy="52.5" r="52.5" stroke="none"/><circle cx="52.5" cy="52.5" r="51" fill="none"/></g><path d="M11.443,51.119H.844V16.989h10.6Zm-5.3-38.785a6.167,6.167,0,1,1,6.138-6.2A6.19,6.19,0,0,1,6.138,12.334ZM51.109,51.119H40.533V34.5c0-3.96-.08-9.037-5.51-9.037-5.51,0-6.355,4.3-6.355,8.752v16.9H18.081V16.989H28.246v4.656h.148a11.136,11.136,0,0,1,10.028-5.511c10.726,0,12.7,7.063,12.7,16.237V51.119Z" transform="translate(1821.139 799) rotate(90)" fill="#b2b2b2"/></g></svg>