<svg width="1476" height="165" viewBox="0 0 1476 165" fill="none" xmlns="http://www.w3.org/2000/svg">
<g clip-path="url(#clip0_32_2)">
<path d="M632.35 44.269H643.733L638.042 30.586L632.35 44.269ZM638.042 9L607 20.114L611.75 61.3L638.042 75.923L664.333 61.3L669.083 20.115L638.042 9ZM657.492 60.059H650.232L646.318 50.289H629.8L625.886 60.059H618.607L638.042 16.394L657.492 60.059Z" fill="#B2B2B2"/>
<path d="M338.753 9H286.17C284.269 9.00053 282.445 9.75611 281.101 11.1006C279.756 12.4452 279.001 14.2686 279 16.17V68.753C279.001 70.6544 279.756 72.4779 281.101 73.8224C282.445 75.1669 284.269 75.9225 286.17 75.923H338.753C340.654 75.9225 342.478 75.1669 343.822 73.8224C345.167 72.4779 345.922 70.6544 345.923 68.753V16.17C345.922 14.2686 345.167 12.4452 343.822 11.1006C342.478 9.75611 340.654 9.00053 338.753 9ZM315.419 61.194C315.419 67.707 311.595 70.68 306.019 70.68C304.049 70.7869 302.092 70.2947 300.407 69.2682C298.722 68.2416 297.387 66.7289 296.578 64.929L301.702 61.837C302.688 63.585 303.584 65.064 305.75 65.064C307.811 65.064 309.126 64.257 309.126 61.105V39.728H315.415L315.419 61.194ZM330.3 70.68C324.459 70.68 320.68 67.901 318.842 64.257L323.964 61.3C325.308 63.5 327.071 65.124 330.164 65.124C332.764 65.124 334.436 63.824 334.436 62.017C334.436 59.866 332.736 59.104 329.85 57.834L328.281 57.162C323.74 55.235 320.737 52.8 320.737 47.676C320.737 42.956 324.337 39.37 329.937 39.37C333.937 39.37 336.809 40.759 338.87 44.404L333.97 47.541C332.894 45.614 331.729 44.852 329.922 44.852C329.545 44.8145 329.164 44.8559 328.804 44.9736C328.444 45.0913 328.112 45.2828 327.83 45.5357C327.548 45.7886 327.321 46.0976 327.165 46.4428C327.009 46.7881 326.926 47.1621 326.922 47.541C326.922 49.423 328.087 50.185 330.791 51.365L332.36 52.037C337.708 54.323 340.71 56.668 340.71 61.926C340.71 67.573 336.258 70.68 330.3 70.68Z" fill="#B2B2B2"/>
<path d="M1050.95 66.272C1050.69 66.267 1050.43 66.1984 1050.2 66.072L1047.84 64.672C1047.48 64.472 1047.65 64.401 1047.78 64.364C1048.15 64.2495 1048.51 64.0836 1048.85 63.871C1048.87 63.8609 1048.9 63.8567 1048.93 63.8587C1048.96 63.8608 1048.99 63.8691 1049.02 63.883L1050.84 64.967C1050.88 64.9853 1050.91 64.9949 1050.95 64.9949C1050.99 64.9949 1051.03 64.9853 1051.06 64.967L1058.18 60.854C1058.22 60.833 1058.24 60.8036 1058.26 60.7686C1058.28 60.7335 1058.29 60.6941 1058.29 60.654V52.443C1058.29 52.4025 1058.29 52.362 1058.27 52.3265C1058.25 52.291 1058.22 52.262 1058.18 52.243L1051.06 48.143C1051.03 48.1247 1050.99 48.1151 1050.95 48.1151C1050.91 48.1151 1050.88 48.1247 1050.84 48.143L1043.72 52.243C1043.69 52.2631 1043.66 52.2924 1043.64 52.3276C1043.62 52.3629 1043.61 52.4027 1043.61 52.443V60.657C1043.61 60.6946 1043.62 60.7311 1043.64 60.7634C1043.66 60.7957 1043.69 60.8227 1043.72 60.842L1045.67 61.963C1046.73 62.493 1047.38 61.863 1047.38 61.249V53.132C1047.38 53.1045 1047.39 53.0773 1047.4 53.0519C1047.41 53.0265 1047.42 53.0034 1047.44 52.9839C1047.46 52.9645 1047.48 52.9491 1047.51 52.9386C1047.54 52.9282 1047.56 52.9229 1047.59 52.923H1048.49C1048.52 52.9229 1048.54 52.9282 1048.57 52.9386C1048.6 52.9491 1048.62 52.9645 1048.64 52.9839C1048.66 53.0034 1048.67 53.0265 1048.68 53.0519C1048.69 53.0773 1048.7 53.1045 1048.7 53.132V61.248C1048.74 61.5387 1048.71 61.8344 1048.62 62.1134C1048.53 62.3923 1048.38 62.6475 1048.18 62.8601C1047.97 63.0728 1047.73 63.2375 1047.45 63.3421C1047.18 63.4468 1046.89 63.4888 1046.59 63.465C1046.02 63.4752 1045.45 63.3215 1044.96 63.022L1043.08 61.951C1042.86 61.8184 1042.67 61.6297 1042.54 61.4032C1042.41 61.1766 1042.34 60.92 1042.33 60.658V52.443C1042.33 52.1802 1042.4 51.9219 1042.53 51.6947C1042.66 51.4675 1042.85 51.2795 1043.08 51.15L1050.2 47.036C1050.43 46.9089 1050.68 46.8421 1050.94 46.8421C1051.21 46.8421 1051.46 46.9089 1051.69 47.036L1058.81 51.149C1059.03 51.2816 1059.22 51.4703 1059.35 51.6969C1059.48 51.9234 1059.56 52.1801 1059.56 52.442V60.656C1059.56 60.9188 1059.49 61.1771 1059.36 61.4043C1059.23 61.6316 1059.04 61.8196 1058.81 61.949L1051.69 66.062C1051.47 66.201 1051.21 66.2736 1050.95 66.271L1050.95 66.272ZM1056.7 58.172C1056.7 56.633 1055.67 56.226 1053.48 55.931C1051.26 55.631 1051.04 55.488 1051.04 54.97C1051.04 54.539 1051.22 53.97 1052.86 53.97C1054.33 53.97 1054.87 54.29 1055.09 55.275C1055.1 55.3209 1055.12 55.362 1055.16 55.3912C1055.2 55.4205 1055.24 55.436 1055.29 55.435H1056.21C1056.24 55.4355 1056.27 55.4302 1056.29 55.4195C1056.32 55.4088 1056.34 55.393 1056.36 55.373C1056.38 55.3517 1056.4 55.3263 1056.4 55.2986C1056.41 55.2709 1056.42 55.2416 1056.41 55.213C1056.26 53.513 1055.14 52.725 1052.86 52.725C1050.83 52.725 1049.62 53.587 1049.62 55.016C1049.62 56.58 1050.83 56.999 1052.78 57.196C1055.11 57.43 1055.29 57.762 1055.29 58.218C1055.29 59.018 1054.65 59.351 1053.15 59.351C1051.26 59.351 1050.85 58.883 1050.71 57.951C1050.7 57.9014 1050.68 57.8561 1050.64 57.8243C1050.6 57.7924 1050.55 57.7763 1050.5 57.779H1049.58C1049.55 57.7789 1049.52 57.7842 1049.5 57.7947C1049.47 57.8051 1049.45 57.8205 1049.43 57.8399C1049.41 57.8594 1049.39 57.8825 1049.38 57.9079C1049.37 57.9333 1049.37 57.9605 1049.37 57.988C1049.37 59.183 1050.02 60.611 1053.13 60.611C1055.41 60.611 1056.71 59.724 1056.71 58.173L1056.7 58.172ZM1063.42 52.002C1063.42 52.2724 1063.33 52.5367 1063.18 52.7615C1063.03 52.9863 1062.82 53.1615 1062.57 53.265C1062.32 53.3684 1062.05 53.3955 1061.78 53.3427C1061.52 53.29 1061.27 53.1598 1061.08 52.9686C1060.89 52.7774 1060.76 52.5339 1060.71 52.2687C1060.65 52.0035 1060.68 51.7287 1060.79 51.4789C1060.89 51.2291 1061.06 51.0156 1061.29 50.8654C1061.51 50.7152 1061.78 50.635 1062.05 50.635C1062.23 50.6336 1062.41 50.6678 1062.57 50.7358C1062.74 50.8038 1062.89 50.9042 1063.02 51.0311C1063.14 51.158 1063.24 51.3089 1063.31 51.4751C1063.38 51.6412 1063.42 51.8193 1063.42 51.999V52.002ZM1063.19 52.002C1063.19 51.775 1063.12 51.5534 1063 51.3652C1062.87 51.177 1062.69 51.0306 1062.48 50.9443C1062.27 50.8581 1062.04 50.8359 1061.82 50.8805C1061.59 50.9251 1061.39 51.0346 1061.23 51.1952C1061.07 51.3557 1060.96 51.5601 1060.91 51.7828C1060.87 52.0054 1060.89 52.2362 1060.98 52.4463C1061.06 52.6563 1061.21 52.8361 1061.4 52.9631C1061.59 53.0901 1061.81 53.1586 1062.03 53.16C1062.34 53.1564 1062.63 53.0328 1062.85 52.8158C1063.07 52.5987 1063.19 52.3055 1063.19 51.999V52.002ZM1062.64 52.766H1062.32C1062.31 52.692 1062.26 52.298 1062.26 52.286C1062.23 52.2 1062.21 52.151 1062.1 52.151H1061.83V52.767H1061.53V51.224H1062.06C1062.24 51.224 1062.6 51.224 1062.6 51.63C1062.6 51.7196 1062.58 51.8084 1062.52 51.879C1062.47 51.9496 1062.39 51.9971 1062.3 52.012C1062.51 52.024 1062.52 52.16 1062.56 52.357C1062.57 52.4948 1062.59 52.6311 1062.63 52.763L1062.64 52.766ZM1062.29 51.682C1062.29 51.473 1062.15 51.473 1062.07 51.473H1061.83V51.904H1062.06C1062.09 51.908 1062.12 51.9051 1062.15 51.8953C1062.18 51.8856 1062.21 51.8693 1062.23 51.8477C1062.25 51.8261 1062.27 51.7997 1062.28 51.7705C1062.29 51.7413 1062.3 51.7101 1062.29 51.679V51.682ZM1028.91 34.13C1028.91 33.97 1028.87 33.8126 1028.79 33.6741C1028.71 33.5356 1028.59 33.421 1028.45 33.342L1020.9 28.995C1020.77 28.9228 1020.63 28.8808 1020.48 28.872H1020.41C1020.26 28.8766 1020.12 28.919 1019.99 28.995L1012.46 33.342C1012.32 33.4218 1012.2 33.5366 1012.12 33.6749C1012.04 33.8132 1012 33.9702 1012 34.13L1012.01 45.83C1012.01 45.909 1012.03 45.9865 1012.07 46.0554C1012.11 46.1243 1012.17 46.1822 1012.23 46.224C1012.3 46.2663 1012.38 46.2887 1012.46 46.2887C1012.54 46.2887 1012.62 46.2663 1012.69 46.224L1017.17 43.65C1017.31 43.5691 1017.42 43.4541 1017.5 43.316C1017.58 43.1779 1017.63 43.0215 1017.63 42.862V37.394C1017.63 37.2342 1017.67 37.0772 1017.75 36.9389C1017.83 36.8006 1017.95 36.6858 1018.09 36.606L1019.99 35.506C1020.13 35.424 1020.29 35.3814 1020.45 35.383C1020.61 35.3798 1020.77 35.4225 1020.91 35.506L1022.81 36.606C1022.95 36.6858 1023.07 36.8006 1023.15 36.9389C1023.23 37.0772 1023.27 37.2342 1023.27 37.394V42.862C1023.27 43.0218 1023.31 43.1788 1023.39 43.3171C1023.47 43.4555 1023.59 43.5703 1023.73 43.65L1028.21 46.224C1028.28 46.2663 1028.36 46.2887 1028.44 46.2887C1028.52 46.2887 1028.6 46.2663 1028.67 46.224C1028.73 46.1834 1028.79 46.1257 1028.83 46.0565C1028.87 45.9874 1028.89 45.9093 1028.89 45.83L1028.91 34.13H1028.91ZM1070.19 21.359V43.085C1070.19 43.2448 1070.15 43.4018 1070.07 43.5401C1069.99 43.6785 1069.87 43.7933 1069.73 43.873L1062.18 48.233C1062.04 48.3116 1061.89 48.3529 1061.73 48.3529C1061.57 48.3529 1061.41 48.3116 1061.27 48.233L1053.72 43.873C1053.58 43.7933 1053.47 43.6785 1053.39 43.5401C1053.31 43.4018 1053.27 43.2448 1053.27 43.085V34.364C1053.27 34.2042 1053.31 34.0472 1053.39 33.9089C1053.47 33.7706 1053.58 33.6558 1053.72 33.576L1061.27 29.216C1061.41 29.1374 1061.57 29.0961 1061.73 29.0961C1061.89 29.0961 1062.04 29.1374 1062.18 29.216L1064.07 30.3C1064.12 30.3272 1064.17 30.3415 1064.23 30.3415C1064.28 30.3415 1064.34 30.3272 1064.38 30.2999C1064.43 30.2727 1064.47 30.2334 1064.5 30.1859C1064.53 30.1385 1064.55 30.0844 1064.55 30.029V18.453C1064.55 18.3737 1064.57 18.2958 1064.61 18.227C1064.65 18.1583 1064.7 18.1011 1064.77 18.0612C1064.84 18.0213 1064.92 18.0002 1065 17.9998C1065.08 17.9994 1065.16 18.0198 1065.22 18.059L1069.72 20.571C1069.86 20.6477 1069.98 20.7615 1070.06 20.9003C1070.14 21.0391 1070.19 21.1976 1070.19 21.359ZM1064.52 37.234C1064.52 37.1939 1064.51 37.1545 1064.49 37.1195C1064.47 37.0844 1064.45 37.055 1064.41 37.034L1061.83 35.534C1061.79 35.5158 1061.75 35.5063 1061.71 35.5063C1061.67 35.5063 1061.63 35.5158 1061.59 35.534L1059.01 37.034C1058.97 37.053 1058.94 37.082 1058.92 37.1175C1058.9 37.153 1058.89 37.1935 1058.9 37.234V40.227C1058.89 40.2671 1058.9 40.3065 1058.92 40.3416C1058.94 40.3766 1058.97 40.406 1059.01 40.427L1061.59 41.917C1061.63 41.9353 1061.66 41.9449 1061.7 41.9449C1061.74 41.9449 1061.78 41.9353 1061.81 41.917L1064.4 40.427C1064.44 40.4081 1064.47 40.3791 1064.49 40.3435C1064.51 40.308 1064.51 40.2675 1064.51 40.227V37.234H1064.52ZM1090.36 37.148C1090.5 37.0683 1090.61 36.9535 1090.69 36.8151C1090.77 36.6768 1090.82 36.5198 1090.82 36.36V34.254C1090.82 34.0942 1090.77 33.9372 1090.69 33.7989C1090.61 33.6606 1090.5 33.5458 1090.36 33.466L1082.86 29.106C1082.72 29.0274 1082.56 28.9861 1082.4 28.9861C1082.24 28.9861 1082.09 29.0274 1081.95 29.106L1074.4 33.465C1074.26 33.5448 1074.15 33.6596 1074.07 33.7979C1073.99 33.9362 1073.94 34.0932 1073.94 34.253V42.972C1073.94 43.132 1073.98 43.2894 1074.07 43.4279C1074.15 43.5664 1074.26 43.6811 1074.4 43.76L1081.9 48.033C1082.04 48.112 1082.19 48.1536 1082.35 48.1536C1082.51 48.1536 1082.66 48.112 1082.8 48.033L1087.33 45.508C1087.4 45.4687 1087.46 45.4115 1087.5 45.3422C1087.54 45.273 1087.56 45.1942 1087.56 45.114C1087.56 45.0338 1087.54 44.955 1087.5 44.8858C1087.46 44.8165 1087.4 44.7593 1087.33 44.72L1079.73 40.361C1079.66 40.3218 1079.6 40.2647 1079.56 40.1955C1079.52 40.1263 1079.5 40.0475 1079.5 39.967V37.234C1079.5 37.1535 1079.52 37.0747 1079.56 37.0055C1079.6 36.9363 1079.66 36.8792 1079.73 36.84L1082.1 35.473C1082.17 35.4307 1082.25 35.4083 1082.33 35.4083C1082.41 35.4083 1082.49 35.4307 1082.56 35.473L1084.92 36.84C1084.99 36.8812 1085.05 36.9387 1085.09 37.0075C1085.13 37.0763 1085.15 37.1541 1085.15 37.234V39.377C1085.16 39.4572 1085.18 39.5356 1085.22 39.6045C1085.26 39.6735 1085.32 39.7307 1085.39 39.7704C1085.46 39.8102 1085.54 39.8311 1085.62 39.8312C1085.7 39.8313 1085.77 39.8106 1085.84 39.771L1090.36 37.148H1090.36ZM1080.84 37.579C1080.82 37.5951 1080.8 37.6169 1080.78 37.6427C1080.77 37.6684 1080.76 37.6973 1080.75 37.727V39.402C1080.76 39.4321 1080.76 39.4616 1080.78 39.4875C1080.79 39.5135 1080.81 39.5351 1080.84 39.55L1082.29 40.387C1082.32 40.4049 1082.35 40.4146 1082.38 40.4146C1082.41 40.4146 1082.44 40.4049 1082.47 40.387L1083.92 39.55C1083.94 39.5339 1083.96 39.5121 1083.98 39.4864C1083.99 39.4606 1084 39.4317 1084 39.402V37.726C1084 37.696 1084 37.6665 1083.98 37.6405C1083.97 37.6145 1083.95 37.593 1083.92 37.578L1082.47 36.741C1082.44 36.7231 1082.41 36.7135 1082.38 36.7135C1082.35 36.7135 1082.32 36.7231 1082.29 36.741L1080.84 37.579ZM1049.54 42.936V34.266C1049.54 34.1043 1049.49 33.9467 1049.41 33.8086C1049.32 33.6705 1049.2 33.5566 1049.06 33.478L1041.54 29.143C1041.4 29.0643 1041.24 29.0229 1041.08 29.0229C1040.92 29.0229 1040.76 29.0643 1040.63 29.143L1033.1 33.478C1032.96 33.5554 1032.84 33.669 1032.75 33.8074C1032.67 33.9458 1032.62 34.104 1032.62 34.266V42.936C1032.63 43.0986 1032.68 43.2564 1032.76 43.3944C1032.85 43.5324 1032.97 43.6459 1033.11 43.724L1040.65 48.059C1040.79 48.1401 1040.95 48.1828 1041.11 48.1828C1041.27 48.1828 1041.42 48.1401 1041.56 48.059L1049.07 43.724C1049.18 43.663 1049.28 43.5801 1049.35 43.4805C1049.43 43.3809 1049.49 43.2667 1049.52 43.145C1049.53 43.0763 1049.54 43.0063 1049.54 42.936ZM1040.39 27.555L1040.29 27.617H1040.43L1040.39 27.555ZM1049.77 43.585L1049.72 43.499V43.61L1049.77 43.585Z" fill="#B2B2B2"/>
<path d="M177.5 9.99902H190.589L200.119 25.076L208.287 9.99902H238.238L200.119 75.299L162 9.99902H177.5ZM228.756 15.445H219.6L200.119 49.173L180.651 15.445H171.5L200.119 64.489L228.756 15.445Z" fill="#B2B2B2"/>
<mask id="mask0_32_2" style="mask-type:luminance" maskUnits="userSpaceOnUse" x="807" y="10" width="65" height="65">
<path d="M871.392 10H807V74.392H871.392V10Z" fill="white"/>
</mask>
<g mask="url(#mask0_32_2)">
<path d="M820.187 19.3961C816.268 25.0271 816.756 32.3551 819.75 38.3401L819.969 38.7651L820.109 39.0351L820.196 39.1901L820.352 39.4691C820.445 39.6331 820.54 39.7951 820.638 39.9591L820.801 40.2281C820.909 40.4021 821.02 40.5751 821.133 40.7471L821.274 40.9651C821.43 41.1981 821.59 41.4301 821.754 41.6581L821.768 41.6761L821.849 41.7851C821.991 41.9851 822.138 42.1751 822.287 42.3681L822.452 42.5771C822.585 42.7441 822.72 42.9091 822.852 43.0771L823.007 43.2611C823.191 43.4771 823.379 43.6941 823.57 43.9051L823.581 43.9171L823.603 43.9411C823.79 44.1411 823.981 44.3411 824.176 44.5411L824.359 44.7261C824.509 44.8771 824.659 45.0261 824.816 45.1741L825.003 45.3521C825.209 45.5461 825.417 45.7371 825.63 45.9221L825.64 45.9311L825.749 46.0241C825.936 46.1867 826.126 46.3471 826.318 46.5051L826.554 46.6931C826.711 46.8181 826.869 46.9421 827.028 47.0641L827.282 47.2561C827.458 47.3854 827.635 47.5127 827.814 47.6381L828.007 47.7761L828.061 47.8141C828.231 47.9311 828.405 48.0441 828.578 48.1561L828.802 48.3051C829.069 48.4731 829.339 48.6401 829.612 48.8051L829.836 48.9311C830.036 49.0471 830.236 49.1611 830.444 49.2721L830.78 49.4461L831.215 49.6721L831.315 49.7211L831.493 49.8071C831.721 49.9161 831.95 50.0231 832.182 50.1261L832.328 50.1911C832.595 50.3071 832.861 50.4187 833.128 50.5261L833.328 50.6031C833.578 50.7031 833.828 50.7941 834.086 50.8841L834.186 50.9171C834.465 51.0171 834.748 51.1051 835.032 51.1941L835.232 51.2551C835.518 51.353 835.81 51.4351 836.105 51.5011C855.056 54.9571 860.56 40.1141 860.56 40.1141C855.937 46.1371 847.731 47.7261 839.96 45.9571C839.665 45.8901 839.38 45.7981 839.092 45.7141L838.876 45.6481C838.595 45.5621 838.317 45.4714 838.04 45.3761L837.925 45.3351C837.677 45.2481 837.432 45.1561 837.188 45.0621L836.981 44.9811C836.714 44.8751 836.448 44.7651 836.181 44.6511L836.022 44.5801C835.797 44.4801 835.573 44.3801 835.351 44.2681L835.157 44.1751C834.983 44.0901 834.811 44.0001 834.638 43.9111L834.292 43.7291C834.081 43.6171 833.875 43.5001 833.67 43.3801L833.46 43.2631C833.187 43.1017 832.917 42.9351 832.65 42.7631L832.433 42.6191C832.24 42.4941 832.047 42.3671 831.857 42.2361L831.671 42.1051C831.488 41.9761 831.306 41.8441 831.126 41.7121L830.885 41.5291C830.72 41.4031 830.556 41.2751 830.394 41.1451L830.175 40.9691C829.968 40.7997 829.764 40.6277 829.563 40.4531L829.496 40.3971C829.278 40.2061 829.064 40.0091 828.852 39.8121L828.671 39.6371C828.514 39.4881 828.36 39.3371 828.208 39.1831L828.033 38.9991C827.84 38.7991 827.651 38.5991 827.465 38.3991L827.437 38.3691C827.237 38.1551 827.049 37.9361 826.861 37.7141L826.71 37.5351C826.57 37.3671 826.431 37.1951 826.296 37.0231L826.144 36.8341C825.98 36.6221 825.822 36.4111 825.665 36.1971C821.347 30.3081 819.795 22.1861 823.246 15.5191M832.346 14.6521C829.512 18.7301 829.666 24.1891 831.877 28.5021C832.248 29.2264 832.667 29.9246 833.133 30.5921C833.546 31.2566 834.036 31.8698 834.593 32.4191C834.793 32.6441 835.011 32.8641 835.229 33.0791L835.396 33.2451C835.608 33.4501 835.823 33.6521 836.045 33.8451L836.072 33.8681L836.078 33.8741C836.324 34.0901 836.578 34.2971 836.836 34.5021L837.008 34.6361C837.267 34.8361 837.531 35.0291 837.802 35.2151L837.825 35.2331L838.187 35.4711L838.359 35.5851C838.552 35.7091 838.748 35.8301 838.947 35.9451L839.03 35.9941C839.202 36.0941 839.375 36.1941 839.55 36.2841L839.735 36.3841L840.099 36.5731L840.154 36.5981C840.404 36.7211 840.654 36.8391 840.913 36.9511L841.08 37.0201C841.286 37.1071 841.493 37.1921 841.702 37.2721L841.969 37.3721C842.159 37.4421 842.349 37.5071 842.54 37.5721L842.798 37.6551C843.068 37.7531 843.344 37.833 843.624 37.8941C858.256 40.3101 861.633 29.0441 861.633 29.0441C858.588 33.4301 852.692 35.5221 846.399 33.8891C846.12 33.8157 845.843 33.7361 845.57 33.6501L845.321 33.5701C845.126 33.5081 844.933 33.4401 844.742 33.3701L844.48 33.2701C844.27 33.1887 844.062 33.1047 843.856 33.0181L843.688 32.9471C843.429 32.8344 843.175 32.7161 842.925 32.5921L842.542 32.3971L842.321 32.2831C842.158 32.1951 841.996 32.1031 841.836 32.0091L841.72 31.9431C841.52 31.8271 841.327 31.7081 841.134 31.5851L840.957 31.4671L840.577 31.2151C840.307 31.0291 840.045 30.8341 839.786 30.6371L839.608 30.4961C836.806 28.3237 834.724 25.3574 833.633 21.9841C833.06 20.2424 832.856 18.4005 833.033 16.5756C833.211 14.7507 833.766 12.9828 834.664 11.3841M842.578 11.1081C841.778 12.3101 841.297 13.6955 841.179 15.1345C841.06 16.5734 841.31 18.0188 841.903 19.3351C842.534 20.7664 843.449 22.055 844.592 23.1232C845.735 24.1913 847.083 25.0169 848.554 25.5501L848.918 25.6751L849.078 25.7261C849.248 25.7866 849.422 25.8367 849.599 25.8761C857.678 27.4371 859.869 21.7311 860.452 20.8901C858.533 23.6541 855.307 24.3171 851.352 23.3561C851.04 23.2801 850.696 23.1671 850.395 23.0561C850.008 22.9185 849.628 22.7609 849.258 22.5841C848.555 22.2455 847.887 21.8382 847.264 21.3681C843.72 18.6831 841.52 13.5571 843.833 9.38208" fill="#B2B2B2"/>
<path d="M840.762 59.838H838.51C838.446 59.8409 838.385 59.864 838.336 59.9039C838.286 59.9439 838.25 59.9985 838.234 60.06L837.434 63.76L836.634 67.46C836.617 67.5214 836.582 67.5759 836.533 67.6158C836.483 67.6557 836.422 67.6789 836.359 67.682H834.766C833.189 67.682 833.371 66.591 833.694 65.096L833.704 65.051L833.739 64.862L833.745 64.827L833.817 64.443L833.894 64.032L833.976 63.614L834.34 61.838L834.704 60.062C834.711 60.0349 834.711 60.0065 834.705 59.9792C834.699 59.9519 834.687 59.9263 834.669 59.9046C834.651 59.883 834.629 59.8657 834.603 59.8543C834.578 59.8429 834.55 59.8377 834.522 59.839H832.21C832.146 59.8413 832.085 59.8643 832.035 59.9046C831.986 59.9448 831.951 60.0001 831.936 60.062L831.436 62.42L830.936 64.779L830.89 64.999C830.318 67.612 830.469 70.105 833.581 70.184H833.672H838.556C838.619 70.1809 838.68 70.1577 838.73 70.1178C838.779 70.0779 838.814 70.0234 838.831 69.962L839.884 65.011L840.937 60.059C840.944 60.0326 840.944 60.0049 840.939 59.9782C840.933 59.9515 840.921 59.9265 840.904 59.9051C840.887 59.8837 840.866 59.8665 840.841 59.8549C840.816 59.8432 840.789 59.8375 840.762 59.838ZM816.64 59.812H814.167C814.103 59.8145 814.041 59.8374 813.991 59.8774C813.941 59.9173 813.905 59.9722 813.889 60.034L813.654 61.069L813.419 62.104C813.411 62.1307 813.41 62.1589 813.415 62.1862C813.421 62.2135 813.433 62.239 813.45 62.2608C813.467 62.2825 813.49 62.2998 813.515 62.3111C813.54 62.3225 813.568 62.3276 813.596 62.326H816.09C816.153 62.3231 816.215 62.3 816.264 62.2601C816.314 62.2202 816.349 62.1655 816.366 62.104L816.593 61.069L816.82 60.034C816.827 60.0071 816.828 59.9788 816.822 59.9515C816.817 59.9241 816.804 59.8986 816.787 59.8769C816.769 59.8552 816.747 59.838 816.721 59.8267C816.696 59.8154 816.668 59.8104 816.64 59.812ZM815.923 63.034H813.429C813.365 63.0365 813.303 63.0594 813.253 63.0994C813.203 63.1393 813.167 63.1942 813.151 63.256L812.801 64.807L812.451 66.358L812.351 66.803L812.015 68.386L811.679 69.97C811.653 70.092 811.599 70.289 811.559 70.408C811.559 70.408 811.093 71.794 810.31 71.778H810.21L809.533 71.766C809.469 71.768 809.408 71.7901 809.358 71.8291C809.308 71.8681 809.271 71.922 809.254 71.983L808.995 73.07L808.737 74.156C808.729 74.1826 808.727 74.2107 808.732 74.238C808.738 74.2653 808.749 74.291 808.766 74.3129C808.783 74.3348 808.805 74.3524 808.83 74.3641C808.856 74.3757 808.883 74.3812 808.911 74.38C809.355 74.385 810.35 74.397 810.951 74.397C812.907 74.397 813.938 73.313 814.598 70.197L815.375 66.611L816.1 63.255C816.107 63.2282 816.108 63.2 816.102 63.1728C816.096 63.1456 816.084 63.1202 816.066 63.0986C816.049 63.077 816.026 63.0599 816.001 63.0487C815.975 63.0375 815.948 63.0325 815.92 63.034H815.923ZM861.823 62.195L861.723 61.768L861.623 61.331L861.571 61.11C861.371 60.323 860.771 59.869 859.483 59.869H857.474H855.623H853.537C853.473 59.8712 853.412 59.894 853.362 59.9341C853.313 59.9741 853.277 60.0292 853.262 60.091L853.17 60.526L853.061 61.04L853.031 61.184L852.093 65.576L851.203 69.745C851.177 69.8544 851.17 69.9674 851.183 70.079C851.198 70.14 851.438 70.19 851.563 70.19H853.441C853.56 70.1912 853.679 70.1744 853.793 70.14C853.861 70.112 853.962 69.867 853.987 69.74L854.321 68.088L854.655 66.436L854.7 66.216L855.105 64.316L855.463 62.64C855.479 62.5787 855.515 62.5241 855.564 62.4842C855.614 62.4443 855.674 62.4212 855.738 62.418H861.649C861.677 62.4201 861.705 62.4152 861.731 62.4037C861.757 62.3923 861.779 62.3747 861.797 62.3525C861.814 62.3302 861.826 62.304 861.831 62.2762C861.836 62.2484 861.834 62.2199 861.825 62.193L861.823 62.195ZM869.432 58.336H868.977H867.087C867.017 58.3398 866.95 58.3586 866.888 58.3911C866.827 58.4235 866.773 58.4689 866.731 58.524L862.547 64.653C862.477 64.753 862.396 64.741 862.368 64.62L862.06 63.27C862.043 63.2082 862.007 63.1533 861.957 63.1134C861.907 63.0734 861.846 63.0505 861.782 63.048H859.093C859.066 63.0458 859.038 63.0505 859.014 63.0616C858.989 63.0727 858.967 63.09 858.951 63.1117C858.934 63.1335 858.923 63.159 858.919 63.186C858.915 63.2129 858.918 63.2405 858.928 63.266L860.133 67.493C860.167 67.6371 860.169 67.7871 860.139 67.932L859.614 69.975C859.605 70.0012 859.603 70.029 859.608 70.0561C859.613 70.0832 859.624 70.1088 859.641 70.1305C859.658 70.1522 859.68 70.1695 859.705 70.1807C859.73 70.192 859.757 70.1969 859.785 70.195H862.443C862.507 70.1925 862.569 70.17 862.62 70.1305C862.671 70.0911 862.708 70.0367 862.727 69.975L863.253 67.932C863.295 67.7889 863.36 67.6537 863.446 67.532L870.238 58.518C870.314 58.418 870.273 58.336 870.148 58.337L869.432 58.336ZM848.067 63.623C848.058 63.6874 848.026 63.7464 847.977 63.7894C847.928 63.8325 847.866 63.8568 847.801 63.858H844.391C844.367 63.8609 844.344 63.8581 844.322 63.8499C844.299 63.8416 844.28 63.828 844.264 63.8104C844.248 63.7928 844.237 63.7717 844.231 63.7488C844.225 63.7259 844.225 63.702 844.231 63.679V63.671V63.66L844.246 63.602C844.402 63.1458 844.708 62.7559 845.113 62.4955C845.519 62.2352 846.001 62.1197 846.481 62.168C847.881 62.168 848.159 62.853 848.064 63.624L848.067 63.623ZM847.067 59.687C842.69 59.687 841.653 62.344 841.067 65.025C840.485 67.758 840.535 70.313 845.067 70.313H845.784H846.328H846.338C847.538 70.313 848.738 70.299 849.22 70.295C849.283 70.2909 849.343 70.2671 849.392 70.2269C849.44 70.1867 849.475 70.1321 849.491 70.071L849.674 69.171L849.71 68.997L849.929 67.928C849.936 67.9009 849.936 67.8725 849.93 67.8452C849.924 67.8179 849.912 67.7923 849.894 67.7706C849.876 67.749 849.854 67.7317 849.828 67.7203C849.803 67.7089 849.775 67.7037 849.747 67.705H845.675C844.055 67.705 843.575 67.275 843.752 66.005H850.265C850.316 66.0028 850.366 65.9857 850.408 65.9559C850.45 65.9261 850.483 65.8848 850.502 65.837L850.517 65.78C851.483 62.135 851.206 59.68 847.066 59.68L847.067 59.687ZM826.375 63.609L826.313 63.827L825.822 65.569L825.331 67.31C825.311 67.3716 825.272 67.4256 825.221 67.4648C825.169 67.5039 825.107 67.5263 825.042 67.529H822.442C820.469 67.529 819.988 65.985 820.469 63.709C820.949 61.381 821.891 59.934 823.833 59.787C826.487 59.587 827.018 61.453 826.377 63.608L826.375 63.609ZM828.164 67.393C828.796 65.8715 829.298 64.2992 829.664 62.693C830.044 60.393 828.891 57.051 824.438 57.051C820.011 57.051 818.088 60.239 817.354 63.705C816.621 67.196 817.582 70.257 821.984 70.232L825.457 70.219L828.703 70.207C828.767 70.2039 828.829 70.1811 828.88 70.1415C828.931 70.102 828.969 70.0477 828.988 69.986L829.554 67.829C829.563 67.8029 829.565 67.775 829.56 67.7478C829.556 67.7206 829.544 67.6949 829.528 67.673C829.511 67.6511 829.489 67.6336 829.464 67.6221C829.439 67.6106 829.411 67.6055 829.384 67.607H828.842H828.3C828.278 67.6097 828.257 67.6072 828.236 67.6C828.216 67.5927 828.197 67.5808 828.183 67.5651C828.168 67.5495 828.156 67.5306 828.15 67.5099C828.144 67.4892 828.142 67.4674 828.146 67.446L828.164 67.393ZM850.082 65.399C850.082 65.4285 850.073 65.4573 850.057 65.4818C850.04 65.5063 850.017 65.5254 849.99 65.5367C849.963 65.548 849.933 65.5509 849.904 65.5452C849.875 65.5394 849.848 65.5252 849.828 65.5044C849.807 65.4835 849.792 65.457 849.787 65.4281C849.781 65.3992 849.784 65.3692 849.795 65.342C849.806 65.3148 849.826 65.2915 849.85 65.2751C849.875 65.2588 849.903 65.25 849.933 65.25C849.953 65.25 849.972 65.254 849.991 65.2616C850.009 65.2693 850.025 65.2806 850.039 65.2947C850.053 65.3089 850.064 65.3257 850.071 65.3441C850.079 65.3625 850.082 65.3822 850.082 65.402V65.399Z" fill="#B2B2B2"/>
</g>
<path fill-rule="evenodd" clip-rule="evenodd" d="M722.123 75.273L706 10L770.635 28.609L722.123 75.273Z" stroke="#B2B2B2" stroke-miterlimit="10" stroke-linejoin="round"/>
<path fill-rule="evenodd" clip-rule="evenodd" d="M738.305 19.3059L746.361 51.9519L714.061 42.6449L738.305 19.3059Z" stroke="#B2B2B2" stroke-miterlimit="10" stroke-linejoin="round"/>
<path fill-rule="evenodd" clip-rule="evenodd" d="M730.29 47.072L726.29 30.855L742.337 35.461L730.29 47.072Z" stroke="#B2B2B2" stroke-miterlimit="10" stroke-linejoin="round"/>
<path fill-rule="evenodd" clip-rule="evenodd" d="M722.287 14.658L726.287 30.875L710.241 26.269L722.287 14.658Z" stroke="#B2B2B2" stroke-miterlimit="10" stroke-linejoin="round"/>
<path fill-rule="evenodd" clip-rule="evenodd" d="M754.379 23.9021L758.379 40.1191L742.332 35.5131L754.379 23.9021Z" stroke="#B2B2B2" stroke-miterlimit="10" stroke-linejoin="round"/>
<path fill-rule="evenodd" clip-rule="evenodd" d="M730.293 47.084L734.293 63.301L718.246 58.695L730.293 47.084Z" stroke="#B2B2B2" stroke-miterlimit="10" stroke-linejoin="round"/>
<path d="M1171.52 21.285C1194.83 21.285 1212.76 31.104 1212.76 41.885C1212.76 52.666 1194.82 62.485 1171.52 62.485C1148.22 62.485 1130.29 52.666 1130.29 41.885C1130.29 31.104 1148.22 21.285 1171.52 21.285ZM1171.52 19C1147.49 19 1128 29.241 1128 41.889C1128 54.537 1147.49 64.778 1171.52 64.778C1195.55 64.778 1215.04 54.537 1215.04 41.889C1215.04 29.241 1195.55 19 1171.52 19ZM1157.68 40.053C1156.6 45.561 1152.81 44.99 1148.14 44.99L1150 35.39C1155.17 35.388 1158.68 34.831 1157.68 40.053ZM1141.25 54.714H1146.24L1147.42 48.621C1153.01 48.621 1156.48 49.029 1159.69 46.021C1163.24 42.757 1164.16 36.95 1161.63 34.039C1160.31 32.516 1158.19 31.768 1155.31 31.768H1145.69L1141.25 54.714ZM1166.5 25.664H1171.46L1170.28 31.757C1174.56 31.757 1178.54 31.444 1180.45 33.212C1182.47 35.062 1181.5 37.428 1179.33 48.594H1174.3C1176.39 37.794 1176.79 36.894 1176.03 36.082C1175.29 35.293 1173.62 35.456 1169.58 35.456L1167.02 48.594H1162.06L1166.5 25.664ZM1196.68 40.053C1195.59 45.643 1191.69 44.99 1187.15 44.99L1189.01 35.39C1194.21 35.388 1197.69 34.831 1196.68 40.053H1196.68ZM1180.25 54.714H1185.25L1186.44 48.621C1192.31 48.621 1195.56 48.961 1198.7 46.021C1202.25 42.757 1203.18 36.95 1200.65 34.039C1199.33 32.516 1197.21 31.768 1194.32 31.768H1184.71L1180.25 54.714Z" fill="#B2B2B2"/>
<path d="M967.705 75.7H915C913.144 75.6979 911.365 74.9597 910.053 73.6474C908.74 72.3351 908.002 70.5559 908 68.7V16C908.002 14.1441 908.74 12.3649 910.053 11.0526C911.365 9.7403 913.144 9.00212 915 9H967.7C969.556 9.00212 971.335 9.7403 972.647 11.0526C973.96 12.3649 974.698 14.1441 974.7 16V68.7C974.698 70.555 973.96 72.3335 972.649 73.6456C971.338 74.9578 969.56 75.6966 967.705 75.7ZM952.175 60.21L950.298 61.31C949.416 61.827 948.484 62.359 948.036 62.61L947.858 62.71C947.649 62.8236 947.448 62.9522 947.258 63.095C947.714 64.0114 948.289 64.8635 948.968 65.629C950.77 67.4676 953.11 68.6862 955.65 69.109C957.308 69.3343 958.988 69.3517 960.65 69.161C962.216 69.0227 963.716 68.4675 964.995 67.553C966.274 66.6385 967.284 65.3982 967.921 63.961C968.387 62.6522 968.56 61.2572 968.429 59.8742C968.298 58.4912 967.865 57.1538 967.161 55.956C965.895 54.056 963.882 52.725 959.185 50.702C956.634 49.602 955.816 49.049 955.385 48.147C955.183 47.7698 955.086 47.3455 955.103 46.918C955.087 46.5781 955.139 46.2384 955.257 45.9193C955.376 45.6002 955.557 45.3082 955.791 45.061C956.091 44.7853 956.443 44.5725 956.827 44.4351C957.211 44.2977 957.618 44.2385 958.025 44.261C958.136 44.261 958.251 44.261 958.366 44.273C958.996 44.2938 959.61 44.4752 960.151 44.8C960.691 45.1248 961.139 45.5823 961.453 46.129C961.723 46.529 961.953 46.78 962.032 46.78C962.037 46.7814 962.042 46.7814 962.047 46.78C963.72 45.741 966.636 43.792 966.614 43.705C966.177 42.9398 965.649 42.2309 965.04 41.594C963.936 40.4156 962.506 39.592 960.933 39.228C959.289 38.9311 957.609 38.8836 955.951 39.087C954.325 39.3103 952.806 40.0283 951.601 41.1436C950.397 42.2589 949.564 43.7176 949.216 45.322C949.029 46.7161 949.068 48.1312 949.331 49.513C949.686 50.7251 950.3 51.8456 951.131 52.797C952.881 54.5116 954.994 55.8112 957.314 56.6C960.255 57.874 961.314 58.488 961.828 59.227C962.203 59.7803 962.371 60.4475 962.304 61.1123C962.237 61.7772 961.939 62.3975 961.462 62.865C960.531 63.5052 959.441 63.8745 958.313 63.9317C957.185 63.9889 956.064 63.7318 955.073 63.189C954.089 62.5652 953.239 61.7517 952.573 60.796L952.179 60.217L952.175 60.21ZM930.683 39.251C925.793 39.251 922.488 39.273 922.459 39.305C922.387 40.2071 922.363 41.1123 922.386 42.017V44.654H930.936V68.946H936.983V44.654H945.531L945.509 41.963L945.477 39.285L934 39.254C932.849 39.252 931.736 39.251 930.683 39.251Z" fill="#B2B2B2"/>
<path d="M447.318 47.0979C444.962 47.1037 442.641 47.6732 440.55 48.7589C439.887 47.592 439.378 46.3443 439.035 45.0469C438.836 44.0236 438.791 42.9766 438.899 41.9399C439.127 40.8008 439.423 39.6765 439.785 38.5729C439.772 38.4289 439.622 37.7479 438.12 37.7259C436.618 37.7039 435.32 38.0259 435.186 38.4489C434.925 39.2194 434.715 40.0065 434.559 40.8049C433.322 44.0393 431.793 47.1539 429.989 50.1099C428.978 48.3422 428.566 46.2949 428.815 44.2739C429.043 43.1348 429.339 42.0105 429.701 40.9069C429.688 40.7629 429.538 40.0819 428.036 40.0599C426.534 40.0379 425.236 40.3599 425.102 40.7829C424.968 41.2059 424.787 42.1949 424.475 43.1389C424.163 44.0829 420.519 52.6979 419.564 54.9259C419.073 56.0559 418.649 56.9769 418.35 57.5979C418.336 57.6382 418.318 57.677 418.297 57.7139C418.03 58.2479 417.889 58.5389 417.889 58.5389V58.5529C417.684 58.9429 417.465 59.3039 417.355 59.3039C417.164 58.4955 417.174 57.6529 417.382 56.8489C417.916 53.8569 419.223 49.2079 419.209 49.0489C419.209 48.9609 419.454 48.1489 418.363 47.7349C418.11 47.6077 417.823 47.5664 417.545 47.6173C417.266 47.6682 417.012 47.8085 416.821 48.0169C416.721 48.0169 416.658 48.2629 416.658 48.2629C416.658 48.2629 417.845 43.0339 414.393 43.0339C413.028 43.3363 411.738 43.9138 410.603 44.7312C409.469 45.5485 408.512 46.5886 407.793 47.7879C406.865 48.3219 404.888 49.4629 402.772 50.6879C401.972 51.1649 401.134 51.6429 400.358 52.0999C400.305 52.0439 400.249 51.9699 400.195 51.9139C395.995 47.1739 388.271 43.8289 388.604 37.4869C388.727 35.1759 389.476 29.1079 403.434 21.7379C414.921 15.7439 424.063 17.4049 425.645 21.0879C427.91 26.3479 420.745 36.1139 408.879 37.5289C407.559 37.8074 406.192 37.7706 404.889 37.4216C403.586 37.0725 402.383 36.421 401.379 35.5199C400.752 34.7969 400.656 34.7539 400.424 34.8989C400.043 35.1169 400.288 35.7659 400.424 36.1419C400.859 36.9954 401.462 37.752 402.197 38.3659C402.932 38.9798 403.784 39.4384 404.701 39.7139C409.374 40.782 414.269 40.2685 418.618 38.2539C425.818 35.3079 431.418 27.1149 429.779 20.2539C428.128 13.2909 417.214 10.9939 406.885 14.8869C400.361 17.2257 394.377 20.8603 389.294 25.5719C383.601 31.2079 382.701 36.1039 383.073 38.1569C384.407 45.4399 393.88 50.1769 397.673 53.6939C397.481 53.8099 397.305 53.9119 397.155 53.9939C395.255 54.9939 388.029 58.9939 386.218 63.2259C384.172 68.0259 386.546 71.4609 388.118 71.9259C390.514 72.5084 393.033 72.2978 395.299 71.3259C397.565 70.354 399.454 68.6731 400.683 66.5359C401.797 64.7077 402.478 62.6487 402.674 60.5167C402.869 58.3847 402.574 56.2363 401.811 54.2359C401.799 54.2037 401.781 54.174 401.758 54.1479L403.244 53.2239C404.212 52.6169 405.167 52.0539 405.986 51.5909C405.43 53.2931 405.104 55.0622 405.018 56.8509C404.823 59.5775 405.613 62.2836 407.243 64.4779C407.484 64.7003 407.768 64.8703 408.078 64.9772C408.388 65.0841 408.716 65.1255 409.043 65.0989C410.643 65.0989 411.377 63.6869 412.18 62.0089C413.162 59.9579 414.047 57.5739 414.047 57.5739C414.047 57.5739 412.947 64.0179 415.947 64.0179C417.038 64.0179 418.147 62.5179 418.636 61.7579V61.7719C418.636 61.7719 418.663 61.7299 418.719 61.6279L418.895 61.3279V61.2979C419.332 60.4899 420.314 58.6539 421.773 55.6059C423.656 51.6769 425.473 46.7639 425.473 46.7639C425.648 47.8419 425.889 48.9079 426.196 49.9559C426.634 51.2215 427.153 52.4575 427.751 53.6559C427.313 54.3059 427.041 54.6669 427.041 54.6669L427.054 54.6809C426.699 55.1729 426.318 55.7059 425.894 56.2259C424.628 57.7008 423.457 59.255 422.389 60.8789C422.229 61.1532 422.174 61.4763 422.234 61.7881C422.295 62.0999 422.466 62.3791 422.717 62.5739C423.273 62.8822 423.916 62.9946 424.544 62.8929C425.49 62.8356 426.419 62.6108 427.286 62.2289C428.134 61.9117 428.93 61.4687 429.647 60.9149C430.401 60.3446 431.001 59.5963 431.394 58.7369C431.788 57.8776 431.962 56.9341 431.901 55.9909C431.818 54.789 431.528 53.6105 431.042 52.5079C431.178 52.3079 431.309 52.1079 431.437 51.9009C432.958 49.4957 434.325 46.9963 435.529 44.4179C435.704 45.4959 435.945 46.5619 436.252 47.6099C436.613 48.7024 437.059 49.765 437.586 50.7879C435.822 52.2354 434.449 54.102 433.593 56.2169C432.734 58.8469 433.401 60.0309 434.66 60.3049C435.352 60.3547 436.044 60.2048 436.653 59.8729C437.563 59.5542 438.415 59.0899 439.176 58.4979C439.999 57.9687 440.682 57.248 441.167 56.3976C441.651 55.5471 441.923 54.592 441.958 53.6139C441.898 52.6242 441.687 51.6495 441.331 50.7239C443.62 49.7732 446.126 49.4685 448.576 49.8429C455.069 50.6509 456.352 54.9429 456.107 56.7499C455.999 57.3803 455.76 57.9811 455.405 58.5133C455.051 59.0456 454.588 59.4975 454.048 59.8399C453.597 60.1399 453.448 60.2399 453.488 60.4609C453.541 60.7799 453.755 60.7609 454.142 60.7069C455.143 60.356 456.016 59.714 456.649 58.8633C457.282 58.0126 457.646 56.9922 457.695 55.9329C457.9 51.6959 454.08 47.0489 447.326 47.0909L447.318 47.0979ZM397.218 64.9739C395.063 67.4599 392.061 68.3979 390.765 67.6039C389.372 66.7569 389.919 63.0839 392.565 60.4509C394.126 58.9624 395.823 57.6233 397.634 56.4509C397.949 56.2509 398.413 55.9589 398.968 55.6039L399.117 55.5159L399.445 55.2979C399.921 56.968 399.966 58.7314 399.577 60.4236C399.187 62.1159 398.375 63.682 397.217 64.9759L397.218 64.9739ZM412.907 53.6739C412.157 55.6089 410.589 60.5669 409.634 60.2899C408.815 60.0579 408.3 56.3009 409.471 52.5899C410.056 50.8148 410.917 49.1427 412.021 47.6349C413.195 46.2479 414.491 45.7849 414.803 46.3499C414.519 48.8692 413.88 51.3354 412.903 53.6749L412.907 53.6739ZM425.853 60.2329C425.538 60.4049 425.239 60.5149 425.103 60.4329C425.003 60.3759 425.239 60.1509 425.239 60.1509C425.239 60.1509 426.864 58.3009 427.504 57.4649C427.872 56.9729 428.304 56.3969 428.774 55.7449V55.9309C428.774 58.1399 426.755 59.6309 425.856 60.2359L425.853 60.2329ZM435.841 57.8209C435.609 57.6489 435.649 57.0699 436.428 55.2639C436.962 54.1154 437.718 53.0841 438.653 52.2299C439.016 53.3442 438.925 54.5569 438.399 55.6042C437.873 56.6516 436.955 57.4489 435.844 57.8229L435.841 57.8209Z" fill="#B2B2B2"/>
<g opacity="0.01">
<path d="M769 99H684V165H769V99Z" fill="white"/>
<path d="M768.5 99.5H684.5V164.5H768.5V99.5Z" stroke="#707070"/>
</g>
<g opacity="0.01">
<path d="M1322 7V92L1476 92V7L1322 7Z" fill="white"/>
<path d="M1322.5 7.5V91.5L1475.5 91.5V7.5L1322.5 7.5Z" stroke="#707070"/>
</g>
<g opacity="0.01">
<path d="M0 7L0 92L154 92V7L0 7Z" fill="white"/>
<path d="M0.5 7.5L0.5 91.5L153.5 91.5V7.5L0.5 7.5Z" stroke="#707070"/>
</g>
<path d="M1284.01 9.99999C1282.07 10.0249 1280.17 10.578 1278.51 11.6L1261.41 22.16C1259.76 23.1818 1258.39 24.6092 1257.45 26.3068C1256.5 28.0045 1256 29.916 1256 31.86V53.4C1256 55.3444 1256.52 57.2541 1257.49 58.9372C1258.46 60.6204 1259.86 62.0178 1261.55 62.989L1278.95 73.005C1280.51 73.9037 1282.28 74.3806 1284.08 74.389C1285.89 74.3974 1287.66 73.9371 1289.24 73.053L1308.14 62.412C1309.71 61.521 1311.03 60.2263 1311.95 58.6605C1312.86 57.0946 1313.34 55.3138 1313.35 53.5V30.8C1313.34 29.1251 1312.9 27.4796 1312.07 26.0278C1311.23 24.5759 1310.03 23.3685 1308.58 22.526L1289.55 11.452C1287.87 10.4757 1285.95 9.97388 1284.01 9.99999ZM1284.07 14.491C1285.2 14.4765 1286.31 14.7685 1287.29 15.336L1306.33 26.409C1307.1 26.8547 1307.73 27.4953 1308.18 28.2662C1308.62 29.037 1308.85 29.911 1308.85 30.8V53.5C1308.85 54.5179 1308.58 55.5178 1308.07 56.3966C1307.55 57.2755 1306.81 58.0015 1305.93 58.5L1287.03 69.141C1286.14 69.6447 1285.13 69.9072 1284.11 69.9025C1283.08 69.8977 1282.08 69.626 1281.19 69.114L1263.79 59.1C1262.78 58.5241 1261.95 57.6938 1261.37 56.6929C1260.79 55.692 1260.49 54.5561 1260.49 53.4V31.856C1260.49 30.6782 1260.79 29.5199 1261.37 28.4914C1261.94 27.4628 1262.77 26.5982 1263.77 25.98L1280.88 15.422C1281.84 14.8282 1282.94 14.5064 1284.07 14.491H1284.07ZM1271.46 24.8V59.287H1278.68V44.208H1290.65V59.287H1297.88V24.8H1290.65V37.364H1278.68V24.8H1271.46Z" fill="#B2B2B2"/>
<g opacity="0.01">
<path d="M769 0H684V9H769V0Z" fill="white"/>
<path d="M768.5 0.5H684.5V8.5H768.5V0.5Z" stroke="#707070"/>
</g>
<g clip-path="url(#clip1_32_2)">
<path d="M90.4998 47.812C94.2901 47.812 97.3628 44.7621 97.3628 40.9999C97.3628 37.2376 94.2901 34.1877 90.4998 34.1877C86.7094 34.1877 83.6367 37.2376 83.6367 40.9999C83.6367 44.7621 86.7094 47.812 90.4998 47.812Z" fill="#B2B2B2"/>
<path d="M90.4999 54.9566C110.838 54.9566 127.326 48.708 127.326 41C127.326 33.292 110.838 27.0435 90.4999 27.0435C70.1614 27.0435 53.6738 33.292 53.6738 41C53.6738 48.708 70.1614 54.9566 90.4999 54.9566Z" stroke="#B2B2B2" stroke-width="3"/>
<path d="M78.3226 47.9783C88.4918 65.4613 102.187 76.5098 108.913 72.6558C115.638 68.8018 112.846 51.5047 102.677 34.0217C92.5075 16.5387 78.8118 5.49025 72.0866 9.34425C65.3614 13.1983 68.1533 30.4953 78.3226 47.9783Z" stroke="#B2B2B2" stroke-width="3"/>
<path d="M78.3227 34.0217C68.1534 51.5047 65.3615 68.8017 72.0867 72.6557C78.8119 76.5097 92.5076 65.4613 102.677 47.9783C112.846 30.4953 115.638 13.1982 108.913 9.34423C102.188 5.49023 88.4919 16.5387 78.3227 34.0217Z" stroke="#B2B2B2" stroke-width="3"/>
</g>
<g clip-path="url(#clip2_32_2)">
<path fill-rule="evenodd" clip-rule="evenodd" d="M1352.18 37.9601C1352.03 37.9601 1351.99 37.8858 1352.07 37.7742L1352.87 36.7704C1352.95 36.6588 1353.14 36.5845 1353.29 36.5845H1366.91C1367.07 36.5845 1367.11 36.696 1367.03 36.8075L1366.38 37.7742C1366.3 37.8858 1366.11 37.9973 1366 37.9973L1352.18 37.9601Z" fill="#B2B2B2"/>
<path fill-rule="evenodd" clip-rule="evenodd" d="M1346.42 41.3808C1346.27 41.3808 1346.23 41.3064 1346.31 41.1949L1347.11 40.191C1347.18 40.0795 1347.37 40.0051 1347.53 40.0051H1364.93C1365.08 40.0051 1365.16 40.1167 1365.12 40.2282L1364.82 41.1205C1364.78 41.2692 1364.62 41.3436 1364.47 41.3436L1346.42 41.3808Z" fill="#B2B2B2"/>
<path fill-rule="evenodd" clip-rule="evenodd" d="M1355.66 44.8012C1355.5 44.8012 1355.46 44.6896 1355.54 44.5781L1356.08 43.6486C1356.15 43.5371 1356.3 43.4255 1356.46 43.4255H1364.09C1364.24 43.4255 1364.32 43.5371 1364.32 43.6858L1364.24 44.5781C1364.24 44.7268 1364.09 44.8384 1363.98 44.8384L1355.66 44.8012Z" fill="#B2B2B2"/>
<path fill-rule="evenodd" clip-rule="evenodd" d="M1395.27 37.291C1392.87 37.8858 1391.23 38.332 1388.86 38.9268C1388.29 39.0756 1388.25 39.1127 1387.75 38.5551C1387.18 37.923 1386.76 37.514 1385.96 37.1422C1383.55 35.9897 1381.23 36.3243 1379.05 37.6999C1376.46 39.3358 1375.12 41.7525 1375.16 44.764C1375.2 47.7384 1377.3 50.1922 1380.31 50.6012C1382.91 50.9358 1385.08 50.0435 1386.8 48.1474C1387.14 47.7384 1387.45 47.2922 1387.83 46.7717C1386.45 46.7717 1384.74 46.7717 1380.46 46.7717C1379.66 46.7717 1379.47 46.2884 1379.74 45.6563C1380.23 44.5038 1381.15 42.5704 1381.68 41.6038C1381.8 41.3807 1382.07 41.0089 1382.64 41.0089H1396.53C1396.45 42.0127 1396.45 43.0166 1396.3 44.0204C1395.88 46.6974 1394.85 49.1512 1393.17 51.3076C1390.42 54.8397 1386.84 57.0333 1382.3 57.6281C1378.55 58.1115 1375.08 57.4051 1372.03 55.1743C1369.2 53.0922 1367.6 50.341 1367.18 46.9204C1366.69 42.8679 1367.91 39.2243 1370.43 36.0268C1373.14 32.5692 1376.72 30.3756 1381.11 29.5948C1384.7 28.9627 1388.13 29.3717 1391.23 31.4166C1393.25 32.7179 1394.7 34.5025 1395.65 36.6589C1395.88 36.9935 1395.73 37.1794 1395.27 37.291Z" fill="#B2B2B2"/>
<path d="M1407.9 57.8512C1404.43 57.7768 1401.26 56.8101 1398.59 54.5794C1396.34 52.6832 1394.93 50.2666 1394.47 47.4037C1393.78 43.2025 1394.97 39.4845 1397.56 36.1755C1400.35 32.6063 1403.71 30.7473 1408.25 29.9666C1412.14 29.2973 1415.8 29.6691 1419.12 31.8627C1422.14 33.8704 1424.01 36.5845 1424.5 40.1537C1425.15 45.173 1423.67 49.2627 1420.12 52.7576C1417.6 55.2486 1414.51 56.8101 1410.96 57.5166C1409.93 57.7024 1408.9 57.7396 1407.9 57.8512ZM1416.99 42.8307C1416.95 42.3473 1416.95 41.9755 1416.87 41.6037C1416.19 37.923 1412.71 35.8409 1409.09 36.6589C1405.54 37.4396 1403.25 39.6332 1402.41 43.1281C1401.72 46.0281 1403.17 48.9653 1405.92 50.155C1408.02 51.0473 1410.12 50.9358 1412.14 49.9319C1415.15 48.4076 1416.8 46.0281 1416.99 42.8307Z" fill="#B2B2B2"/>
</g>
<g clip-path="url(#clip3_32_2)">
<mask id="mask1_32_2" style="mask-type:luminance" maskUnits="userSpaceOnUse" x="495" y="23" width="75" height="46">
<path d="M495 23H570V68.1636H495V23Z" fill="white"/>
</mask>
<g mask="url(#mask1_32_2)">
<path fill-rule="evenodd" clip-rule="evenodd" d="M532.5 23C522.5 23 516.25 28.0182 513.75 38.0545C517.5 33.0364 521.875 31.1545 526.875 32.4091C529.728 33.1242 531.767 35.2025 534.024 37.5012C537.7 41.2467 541.956 45.5818 551.25 45.5818C561.25 45.5818 567.5 40.5636 570 30.5273C566.25 35.5455 561.875 37.4273 556.875 36.1727C554.022 35.4576 551.983 33.3793 549.726 31.0807C546.05 27.3352 541.794 23 532.5 23ZM513.75 45.5818C503.75 45.5818 497.5 50.6 495 60.6364C498.75 55.6182 503.125 53.7364 508.125 54.9909C510.978 55.7074 513.017 57.7844 515.274 60.083C518.95 63.8285 523.206 68.1636 532.5 68.1636C542.5 68.1636 548.75 63.1455 551.25 53.1091C547.5 58.1273 543.125 60.0091 538.125 58.7545C535.272 58.0395 533.233 55.9611 530.976 53.6625C527.3 49.917 523.044 45.5818 513.75 45.5818Z" fill="#B2B2B2"/>
</g>
</g>
</g>
<defs>
<clipPath id="clip0_32_2">
<rect width="1476" height="165" fill="white"/>
</clipPath>
<clipPath id="clip1_32_2">
<rect width="77" height="68" fill="white" transform="translate(52 7)"/>
</clipPath>
<clipPath id="clip2_32_2">
<rect width="79" height="29" fill="white" transform="translate(1346 29)"/>
</clipPath>
<clipPath id="clip3_32_2">
<rect width="75" height="46" fill="white" transform="translate(495 23)"/>
</clipPath>
</defs>
</svg>
