<svg xmlns="http://www.w3.org/2000/svg" width="101" height="100" viewBox="0 0 101 100"><g transform="translate(0.347 100) rotate(-90)"><g transform="translate(0 -0.347)" fill="none" stroke="#b2b2b2" stroke-width="3"><ellipse cx="50" cy="50.5" rx="50" ry="50.5" stroke="none"/><ellipse cx="50" cy="50.5" rx="48.5" ry="49" fill="none"/></g><path d="M26.856,0A26.886,26.886,0,0,0,0,26.856,27.24,27.24,0,0,0,3.612,40.3,26.853,26.853,0,1,0,26.856,0ZM44.612,12.385a22.83,22.83,0,0,1,5.18,14.289,53.606,53.606,0,0,0-15.973-.738c-.623-1.52-1.211-2.858-2.016-4.506,8.481-3.463,12.325-8.39,12.809-9.045Zm-2.55-2.653c-.413.588-3.866,5.229-12.022,8.286A122.443,122.443,0,0,0,21.48,4.589,22.88,22.88,0,0,1,42.062,9.732ZM17.1,6.131a146.365,146.365,0,0,1,8.5,13.266A85.562,85.562,0,0,1,4.4,22.193,23.023,23.023,0,0,1,17.1,6.131ZM3.917,26.891c0-.235,0-.468.012-.7A84.617,84.617,0,0,0,27.5,22.925c.657,1.285,1.284,2.59,1.86,3.893-8.295,2.336-15.831,9.045-19.55,15.41A22.847,22.847,0,0,1,3.917,26.891Zm8.859,18.1c2.4-4.9,8.9-11.221,18.147-14.376a95.351,95.351,0,0,1,4.893,17.4A22.892,22.892,0,0,1,12.776,44.987Zm26.9.919a99.007,99.007,0,0,0-4.456-16.355,33.669,33.669,0,0,1,14.288.981A22.979,22.979,0,0,1,39.673,45.907Z" transform="matrix(-0.259, 0.966, -0.966, -0.259, 82.795, 31.465)" fill="#b2b2b2"/></g></svg>