<svg xmlns="http://www.w3.org/2000/svg" xmlns:xlink="http://www.w3.org/1999/xlink" width="1476" height="165" viewBox="0 0 1476 165"><defs><clipPath id="a"><rect width="64.392" height="64.392" transform="translate(0)" fill="#b2b2b2" stroke="rgba(0,0,0,0)" stroke-width="1"/></clipPath></defs><g transform="translate(-240.708 -2742.396)"><path d="M41.35,67.269H52.733L47.042,53.586,41.35,67.269ZM47.042,32,16,43.114,20.75,84.3,47.042,98.923,73.333,84.3l4.75-41.185Zm19.45,51.059h-7.26l-3.914-9.77H38.8l-3.914,9.77H27.607L47.042,39.394Z" transform="translate(756.708 2719.396)" fill="#b2b2b2"/><path d="M59.753,32H7.17A7.172,7.172,0,0,0,0,39.17V91.753a7.172,7.172,0,0,0,7.17,7.17H59.753a7.172,7.172,0,0,0,7.17-7.17V39.17A7.172,7.172,0,0,0,59.753,32ZM36.419,84.194c0,6.513-3.824,9.486-9.4,9.486a9.77,9.77,0,0,1-9.441-5.751l5.124-3.092c.986,1.748,1.882,3.227,4.048,3.227,2.061,0,3.376-.807,3.376-3.959V62.728h6.289ZM51.3,93.68c-5.841,0-9.62-2.779-11.458-6.423L44.964,84.3c1.344,2.2,3.107,3.824,6.2,3.824,2.6,0,4.272-1.3,4.272-3.107,0-2.151-1.7-2.913-4.586-4.183l-1.569-.672c-4.541-1.927-7.544-4.362-7.544-9.486,0-4.72,3.6-8.306,9.2-8.306,4,0,6.872,1.389,8.933,5.034l-4.9,3.137c-1.076-1.927-2.241-2.689-4.048-2.689a2.73,2.73,0,0,0-3,2.689c0,1.882,1.165,2.644,3.869,3.824l1.569.672c5.348,2.286,8.35,4.631,8.35,9.889C61.71,90.573,57.258,93.68,51.3,93.68Z" transform="translate(524.708 2719.396)" fill="#b2b2b2"/><path d="M38.952,108.287a1.627,1.627,0,0,1-.751-.2l-2.364-1.4c-.357-.2-.185-.271-.062-.308a4.314,4.314,0,0,0,1.071-.493.212.212,0,0,1,.172.012l1.823,1.084a.235.235,0,0,0,.222,0l7.118-4.113a.233.233,0,0,0,.111-.2V94.458a.209.209,0,0,0-.111-.2l-7.118-4.1a.235.235,0,0,0-.222,0l-7.118,4.1a.222.222,0,0,0-.111.2v8.214a.229.229,0,0,0,.111.185l1.946,1.121c1.059.53,1.712-.1,1.712-.714V95.147a.208.208,0,0,1,.209-.209h.9a.208.208,0,0,1,.209.209v8.116a1.964,1.964,0,0,1-2.106,2.217,3.052,3.052,0,0,1-1.638-.443l-1.872-1.071a1.521,1.521,0,0,1-.751-1.293V94.458a1.48,1.48,0,0,1,.751-1.293L38.2,89.051a1.528,1.528,0,0,1,1.49,0l7.118,4.113a1.521,1.521,0,0,1,.751,1.293v8.214a1.48,1.48,0,0,1-.751,1.293l-7.118,4.113a1.364,1.364,0,0,1-.739.209Zm5.751-8.1c0-1.539-1.034-1.946-3.227-2.241-2.217-.3-2.438-.443-2.438-.961,0-.431.185-1,1.823-1,1.465,0,2.007.32,2.229,1.305a.2.2,0,0,0,.2.16h.924a.2.2,0,0,0,.148-.062.194.194,0,0,0,.049-.16c-.148-1.7-1.268-2.488-3.547-2.488-2.032,0-3.239.862-3.239,2.291,0,1.564,1.207,1.983,3.153,2.18,2.328.234,2.512.566,2.512,1.022,0,.8-.64,1.133-2.143,1.133-1.884,0-2.3-.468-2.438-1.4a.2.2,0,0,0-.209-.172h-.924a.208.208,0,0,0-.209.209c0,1.195.653,2.623,3.768,2.623,2.278,0,3.571-.887,3.571-2.438Zm6.712-6.17a1.367,1.367,0,1,1-1.367-1.367A1.356,1.356,0,0,1,51.415,94.014Zm-.222,0a1.151,1.151,0,1,0-1.158,1.158A1.172,1.172,0,0,0,51.193,94.014Zm-.554.764h-.32c-.012-.074-.062-.468-.062-.48-.025-.086-.049-.135-.16-.135h-.271v.616h-.3V93.239h.53c.185,0,.542,0,.542.406a.361.361,0,0,1-.3.382c.209.012.222.148.259.345a1.716,1.716,0,0,0,.074.406Zm-.345-1.084c0-.209-.148-.209-.222-.209h-.246v.431h.234A.208.208,0,0,0,50.294,93.694ZM16.908,76.145a.9.9,0,0,0-.456-.788L8.9,71.01a.974.974,0,0,0-.419-.123H8.411a.868.868,0,0,0-.419.123L.456,75.357A.91.91,0,0,0,0,76.145l.012,11.7a.471.471,0,0,0,.222.394.434.434,0,0,0,.456,0l4.483-2.574a.925.925,0,0,0,.456-.788V79.409a.91.91,0,0,1,.456-.788l1.909-1.1a.875.875,0,0,1,.456-.123.845.845,0,0,1,.456.123l1.909,1.1a.91.91,0,0,1,.456.788v5.468a.91.91,0,0,0,.456.788l4.483,2.574a.434.434,0,0,0,.456,0,.455.455,0,0,0,.222-.394l.025-11.7Zm41.28-12.771V85.1a.91.91,0,0,1-.456.788l-7.549,4.36a.925.925,0,0,1-.911,0l-7.549-4.36a.91.91,0,0,1-.456-.788V76.379a.91.91,0,0,1,.456-.788l7.549-4.36a.925.925,0,0,1,.911,0l1.884,1.084a.322.322,0,0,0,.48-.271V60.468a.453.453,0,0,1,.677-.394l4.495,2.512a.892.892,0,0,1,.468.788ZM52.523,79.249a.233.233,0,0,0-.111-.2l-2.586-1.5a.261.261,0,0,0-.234,0l-2.586,1.5a.209.209,0,0,0-.111.2v2.993a.233.233,0,0,0,.111.2l2.586,1.49a.235.235,0,0,0,.222,0l2.586-1.49a.209.209,0,0,0,.111-.2V79.249Zm25.837-.086a.91.91,0,0,0,.456-.788V76.269a.91.91,0,0,0-.456-.788l-7.5-4.36a.925.925,0,0,0-.911,0L62.4,75.48a.91.91,0,0,0-.456.788v8.719a.9.9,0,0,0,.456.788l7.5,4.273a.9.9,0,0,0,.9,0l4.532-2.525a.452.452,0,0,0,0-.788l-7.6-4.359a.456.456,0,0,1-.234-.394V79.249a.456.456,0,0,1,.234-.394L70.1,77.488a.434.434,0,0,1,.456,0l2.364,1.367a.483.483,0,0,1,.234.394v2.143a.462.462,0,0,0,.69.394l4.52-2.623Zm-9.519.431a.188.188,0,0,0-.086.148v1.675a.171.171,0,0,0,.086.148l1.453.837a.148.148,0,0,0,.172,0l1.453-.837a.188.188,0,0,0,.086-.148V79.741a.171.171,0,0,0-.086-.148l-1.453-.837a.148.148,0,0,0-.172,0Zm-31.3,5.357v-8.67a.934.934,0,0,0-.48-.788l-7.524-4.335a.924.924,0,0,0-.911,0L21.1,75.493a.919.919,0,0,0-.48.788v8.67a.95.95,0,0,0,.493.788l7.537,4.335a.9.9,0,0,0,.911,0l7.512-4.335a.915.915,0,0,0,.443-.579,1.084,1.084,0,0,0,.025-.209Zm-9.15-15.381-.1.062h.135ZM37.77,85.6l-.049-.086v.111Z" transform="translate(1243.708 2700.381)" fill="#b2b2b2"/><path d="M15.5,64.3H28.589l9.53,15.077L46.287,64.3H76.238L38.119,129.6,0,64.3Zm51.256,5.446H57.6L38.119,103.474,18.651,69.746H9.5L38.119,118.79Z" transform="translate(394.708 2688.095)" fill="#b2b2b2"/><g transform="translate(1005.708 2752.396)" clip-path="url(#a)"><g transform="translate(1.735 -0.618)"><path d="M10.554,10.577c-3.919,5.631-3.431,12.959-.437,18.944l.219.425.14.27.087.155.156.279c.093.164.188.326.286.49l.163.269q.162.261.332.519l.141.218c.156.233.316.465.48.693l.014.018.081.109c.142.2.289.39.438.583l.165.209c.133.167.268.332.4.5l.155.184c.184.216.372.433.563.644l.011.012.022.024c.187.2.378.4.573.6l.183.185c.15.151.3.3.457.448l.187.178c.206.194.414.385.627.57l.01.009.109.093q.281.244.569.481l.236.188c.157.125.315.249.474.371l.254.192q.264.194.532.382l.193.138.054.038c.17.117.344.23.517.342l.224.149c.267.168.537.335.81.5l.224.126c.2.116.4.23.608.341l.336.174.435.226.1.049.178.086c.228.109.457.216.689.319l.146.065q.4.174.8.335l.2.077c.25.1.5.191.758.281l.1.033c.279.1.562.188.846.277l.2.061a8.258,8.258,0,0,0,.873.246c18.951,3.456,24.455-11.387,24.455-11.387-4.623,6.023-12.829,7.612-20.6,5.843-.295-.067-.58-.159-.868-.243l-.216-.066q-.421-.129-.836-.272l-.115-.041c-.248-.087-.493-.179-.737-.273l-.207-.081c-.267-.106-.533-.216-.8-.33l-.159-.071c-.225-.1-.449-.2-.671-.312l-.194-.093c-.174-.085-.346-.175-.519-.264l-.346-.182c-.211-.112-.417-.229-.622-.349l-.21-.117q-.41-.242-.81-.5L22.8,33.8c-.193-.125-.386-.252-.576-.383l-.186-.131c-.183-.129-.365-.261-.545-.393l-.241-.183c-.165-.126-.329-.254-.491-.384l-.219-.176q-.31-.254-.612-.516l-.067-.056c-.218-.191-.432-.388-.644-.585l-.181-.175c-.157-.149-.311-.3-.463-.454L18.4,30.18q-.289-.3-.568-.6l-.028-.03c-.2-.214-.388-.433-.576-.655l-.151-.179c-.14-.168-.279-.34-.414-.512l-.152-.189c-.164-.212-.322-.423-.479-.637C11.714,21.489,10.162,13.367,13.613,6.7m9.1-.867c-2.834,4.078-2.68,9.537-.469,13.85A17.988,17.988,0,0,0,23.5,21.773,9.909,9.909,0,0,0,24.96,23.6c.2.225.418.445.636.66l.167.166c.212.205.427.407.649.6l.027.023.006.006c.246.216.5.423.758.628l.172.134c.259.2.523.393.794.579l.023.018.362.238.172.114c.193.124.389.245.588.36l.083.049c.172.1.345.2.52.29l.185.1.364.189.055.025c.25.123.5.241.759.353l.167.069c.206.087.413.172.622.252l.267.1c.19.07.38.135.571.2l.258.083a6.412,6.412,0,0,0,.826.239C48.623,31.491,52,20.225,52,20.225c-3.045,4.386-8.941,6.478-15.234,4.845q-.419-.11-.829-.239l-.249-.08c-.195-.062-.388-.13-.579-.2l-.262-.1q-.315-.122-.624-.252l-.168-.071q-.388-.169-.763-.355l-.383-.195-.221-.114c-.163-.088-.325-.18-.485-.274l-.116-.066c-.2-.116-.393-.235-.586-.358l-.177-.118-.38-.252c-.27-.186-.532-.381-.791-.578l-.178-.141A17.639,17.639,0,0,1,24,13.165a13.216,13.216,0,0,1,1.031-10.6m7.914-.276a8.527,8.527,0,0,0-.675,8.227,11.585,11.585,0,0,0,6.651,6.215l.364.125.16.051a4.442,4.442,0,0,0,.521.15c8.079,1.561,10.27-4.145,10.853-4.986-1.919,2.764-5.145,3.427-9.1,2.466-.312-.076-.656-.189-.957-.3a11.888,11.888,0,0,1-1.137-.472,11.828,11.828,0,0,1-1.994-1.216C34.087,9.864,31.887,4.738,34.2.563" transform="translate(0.898 -0.563)" fill="#b2b2b2"/><path d="M34.187,34.145H31.935a.3.3,0,0,0-.276.222l-.8,3.7-.8,3.7a.3.3,0,0,1-.275.222H28.191c-1.577,0-1.395-1.091-1.072-2.586l.01-.045.035-.189.006-.035.072-.384.077-.411.082-.418.364-1.776.364-1.776a.179.179,0,0,0-.182-.223H25.635a.293.293,0,0,0-.274.223l-.5,2.358-.5,2.359v0l-.046.22c-.572,2.613-.421,5.106,2.691,5.185l.091,0h4.884a.3.3,0,0,0,.275-.222l1.053-4.951,1.053-4.952A.177.177,0,0,0,34.187,34.145Zm-24.122-.026H7.592a.3.3,0,0,0-.278.222l-.235,1.035-.235,1.035a.174.174,0,0,0,.177.222H9.515a.3.3,0,0,0,.276-.222l.227-1.035.227-1.035A.176.176,0,0,0,10.065,34.119Zm-.717,3.222H6.854a.3.3,0,0,0-.278.222l-.35,1.551-.35,1.551-.1.445-.336,1.583-.336,1.584c-.026.122-.08.319-.12.438,0,0-.466,1.386-1.249,1.37l-.1,0-.677-.012h0a.3.3,0,0,0-.279.217l-.259,1.087-.258,1.086a.174.174,0,0,0,.174.224c.444.005,1.439.017,2.04.017,1.956,0,2.987-1.084,3.647-4.2L8.8,40.918l.725-3.356a.176.176,0,0,0-.18-.221Zm45.9-.839-.1-.427-.1-.437-.052-.221c-.2-.787-.8-1.241-2.088-1.241l-2.009,0-1.851,0H46.962a.294.294,0,0,0-.275.222l-.092.435-.109.514-.03.144-.938,4.392-.89,4.169a.973.973,0,0,0-.02.334c.015.061.255.111.38.111h1.878a1.179,1.179,0,0,0,.352-.05c.068-.028.169-.273.194-.4l.334-1.652.334-1.652v0l.045-.22.405-1.9.358-1.676a.3.3,0,0,1,.275-.222l5.911,0A.172.172,0,0,0,55.25,36.5Zm7.609-3.859-.455,0H60.512a.482.482,0,0,0-.356.188l-4.184,6.129c-.07.1-.151.088-.179-.033l-.308-1.35a.3.3,0,0,0-.278-.222H52.518a.162.162,0,0,0-.165.218L53.558,41.8a1,1,0,0,1,.006.439l-.525,2.043a.168.168,0,0,0,.171.22h2.658a.309.309,0,0,0,.284-.22l.526-2.043a1.343,1.343,0,0,1,.193-.4l6.792-9.014c.076-.1.035-.182-.09-.181ZM41.492,37.93v0a.274.274,0,0,1-.266.235h-3.41a.146.146,0,0,1-.16-.179l0-.008h0l0-.011.015-.058a2.136,2.136,0,0,1,2.235-1.434c1.4,0,1.678.685,1.583,1.456Zm-1-3.936c-4.377,0-5.414,2.657-6,5.338-.582,2.733-.532,5.288,4,5.288h.717l.544,0h.01c1.2,0,2.4-.014,2.882-.018a.3.3,0,0,0,.271-.224l.183-.9.036-.174.219-1.069a.179.179,0,0,0-.182-.223H39.1c-1.62,0-2.1-.43-1.923-1.7H43.69a.268.268,0,0,0,.237-.168l.015-.057h0c.966-3.645.689-6.1-3.451-6.1ZM19.8,37.916l-.062.218h0l-.491,1.742-.491,1.741a.318.318,0,0,1-.289.219h-2.6c-1.973,0-2.454-1.544-1.973-3.82.48-2.328,1.422-3.775,3.364-3.922,2.654-.2,3.185,1.666,2.544,3.821ZM21.589,41.7a29.17,29.17,0,0,0,1.5-4.7c.38-2.3-.773-5.642-5.226-5.642-4.427,0-6.35,3.188-7.084,6.654-.733,3.491.228,6.552,4.63,6.527l3.473-.013,3.246-.012a.314.314,0,0,0,.285-.221l.566-2.157a.169.169,0,0,0-.17-.222l-.542,0-.542,0a.139.139,0,0,1-.154-.161Zm21.918-1.994a.149.149,0,1,1-.149-.149A.149.149,0,0,1,43.507,39.709Z" transform="translate(-2.16 16.311)" fill="#b2b2b2"/></g></g><g transform="translate(887.708 2752.396)"><path d="M35.93,90.943,19.807,25.67,84.442,44.279Z" transform="translate(-19.807 -25.67)" fill="none" stroke="#b2b2b2" stroke-linejoin="round" stroke-miterlimit="10" stroke-width="1" fill-rule="evenodd"/><path d="M65.657,50.612l8.056,32.646-32.3-9.307Z" transform="translate(-33.352 -41.306)" fill="none" stroke="#b2b2b2" stroke-linejoin="round" stroke-miterlimit="10" stroke-width="1" fill-rule="evenodd"/><path d="M78.187,97.782l-4-16.217,16.047,4.606Z" transform="translate(-53.897 -60.71)" fill="none" stroke="#b2b2b2" stroke-linejoin="round" stroke-miterlimit="10" stroke-width="1" fill-rule="evenodd"/><path d="M43.22,38.153l4,16.217L31.174,49.764Z" transform="translate(-26.933 -33.495)" fill="none" stroke="#b2b2b2" stroke-linejoin="round" stroke-miterlimit="10" stroke-width="1" fill-rule="evenodd"/><path d="M129.232,62.93l4,16.217-16.047-4.606Z" transform="translate(-80.853 -49.028)" fill="none" stroke="#b2b2b2" stroke-linejoin="round" stroke-miterlimit="10" stroke-width="1" fill-rule="evenodd"/><path d="M64.677,125.06l4,16.217-16.047-4.606Z" transform="translate(-40.384 -87.976)" fill="none" stroke="#b2b2b2" stroke-linejoin="round" stroke-miterlimit="10" stroke-width="1" fill-rule="evenodd"/></g><path d="M43.521,89.985c23.311,0,41.236,9.819,41.236,20.6s-17.939,20.6-41.236,20.6-41.236-9.819-41.236-20.6,17.939-20.6,41.236-20.6m0-2.285C19.489,87.7,0,97.941,0,110.589s19.489,22.889,43.521,22.889,43.521-10.241,43.521-22.889S67.552,87.7,43.521,87.7ZM29.676,108.753c-1.074,5.508-4.869,4.937-9.534,4.937l1.863-9.6C27.173,104.088,30.682,103.531,29.676,108.753ZM13.247,123.414h4.991l1.183-6.093c5.59,0,9.058.408,12.267-2.6,3.55-3.264,4.474-9.071,1.945-11.982-1.319-1.523-3.441-2.271-6.324-2.271H17.694ZM38.5,94.364h4.964l-1.183,6.093c4.284,0,8.255-.313,10.173,1.455,2.013,1.85,1.047,4.216-1.129,15.382H46.3c2.094-10.8,2.489-11.7,1.727-12.512-.734-.789-2.407-.626-6.447-.626l-2.557,13.138H34.055L38.5,94.364Zm30.179,14.389c-1.088,5.59-4.991,4.937-9.534,4.937l1.863-9.6C66.206,104.088,69.688,103.531,68.681,108.753ZM52.252,123.414h5l1.183-6.093c5.875,0,9.126.34,12.267-2.6,3.55-3.264,4.474-9.071,1.945-11.982-1.319-1.523-3.441-2.271-6.324-2.271H56.713Z" transform="translate(1371.708 2673.696)" fill="#b2b2b2"/><g transform="translate(1123.708 2751.396)"><path d="M59.705,66.7H7a7.008,7.008,0,0,1-7-7V7A7.008,7.008,0,0,1,7,0h52.7a7.008,7.008,0,0,1,7,7V59.7A7.008,7.008,0,0,1,59.705,66.7Zm-15.53-15.49-1.877,1.1c-.882.517-1.814,1.049-2.262,1.3l-.178.1a4.888,4.888,0,0,0-.6.385,11.6,11.6,0,0,0,1.71,2.534,12.151,12.151,0,0,0,6.682,3.48,20.112,20.112,0,0,0,5,.052,8.8,8.8,0,0,0,7.271-5.2,9.508,9.508,0,0,0-.76-8.005c-1.266-1.9-3.279-3.231-7.976-5.254-2.551-1.1-3.369-1.653-3.8-2.555a2.4,2.4,0,0,1-.282-1.229,2.526,2.526,0,0,1,.688-1.857,3.053,3.053,0,0,1,2.234-.8c.111,0,.226,0,.341.012a3.7,3.7,0,0,1,3.087,1.856c.27.4.5.651.579.651a.027.027,0,0,0,.015,0c1.673-1.039,4.589-2.988,4.567-3.075a10.809,10.809,0,0,0-1.574-2.111,8.144,8.144,0,0,0-4.107-2.366,16.637,16.637,0,0,0-4.982-.141,8.006,8.006,0,0,0-6.735,6.235,13.1,13.1,0,0,0,.115,4.191,8.72,8.72,0,0,0,1.8,3.284A16.363,16.363,0,0,0,49.314,47.6c2.941,1.274,4,1.888,4.514,2.627a2.853,2.853,0,0,1-.366,3.638,6.1,6.1,0,0,1-6.389.324,8.775,8.775,0,0,1-2.5-2.393l-.394-.579ZM22.683,30.251c-4.89,0-8.195.022-8.224.054a25.84,25.84,0,0,0-.073,2.712v2.637h8.55V59.946h6.047V35.654h8.548l-.022-2.691-.032-2.678L26,30.254C24.849,30.252,23.736,30.251,22.683,30.251Z" transform="translate(0 0)" fill="#b2b2b2"/></g><path d="M66.317,39.6a14.767,14.767,0,0,0-6.768,1.661,15.576,15.576,0,0,1-1.515-3.712,10.549,10.549,0,0,1-.136-3.107,29,29,0,0,1,.886-3.367c-.013-.144-.163-.825-1.665-.847s-2.8.3-2.934.723a18.237,18.237,0,0,0-.627,2.356,56.858,56.858,0,0,1-4.57,9.305,9.437,9.437,0,0,1-1.174-5.836,29,29,0,0,1,.886-3.367c-.013-.144-.163-.825-1.665-.847s-2.8.3-2.934.723-.315,1.412-.627,2.356S39.518,45.2,38.563,47.428c-.491,1.13-.915,2.051-1.214,2.672h0a.674.674,0,0,1-.053.116c-.267.534-.408.825-.408.825v.014c-.205.39-.424.751-.534.751a5.109,5.109,0,0,1,.027-2.455c.534-2.992,1.841-7.641,1.827-7.8,0-.088.245-.9-.846-1.314a1.3,1.3,0,0,0-1.542.282c-.1,0-.163.246-.163.246s1.187-5.229-2.265-5.229a10.291,10.291,0,0,0-6.6,4.754c-.928.534-2.905,1.675-5.021,2.9-.8.477-1.638.955-2.414,1.412-.053-.056-.109-.13-.163-.186-4.2-4.74-11.924-8.085-11.591-14.427.123-2.311.872-8.379,14.83-15.749,11.487-5.994,20.629-4.333,22.211-.65,2.265,5.26-4.9,15.026-16.766,16.441a8.578,8.578,0,0,1-7.5-2.009c-.627-.723-.723-.766-.955-.621-.381.218-.136.867,0,1.243A7.087,7.087,0,0,0,23.7,32.216a21.639,21.639,0,0,0,13.917-1.46c7.2-2.946,12.8-11.139,11.161-18-1.651-6.963-12.565-9.26-22.894-5.367A51.381,51.381,0,0,0,8.293,18.074C2.6,23.71,1.7,28.606,2.072,30.659c1.334,7.283,10.807,12.02,14.6,15.537-.192.116-.368.218-.518.3-1.9,1-9.126,5-10.937,9.232-2.046,4.8.328,8.235,1.9,8.7a11.39,11.39,0,0,0,12.565-5.39,14.028,14.028,0,0,0,1.128-12.3.3.3,0,0,0-.053-.088l1.486-.924c.968-.607,1.923-1.17,2.742-1.633a20.032,20.032,0,0,0-.968,5.26,11.425,11.425,0,0,0,2.225,7.627,2.369,2.369,0,0,0,1.8.621c1.6,0,2.334-1.412,3.137-3.09.982-2.051,1.867-4.435,1.867-4.435s-1.1,6.444,1.9,6.444c1.091,0,2.2-1.5,2.689-2.26v.014s.027-.042.083-.144l.176-.3V53.8c.437-.808,1.419-2.644,2.878-5.692,1.883-3.929,3.7-8.842,3.7-8.842a26.351,26.351,0,0,0,.723,3.192,30.983,30.983,0,0,0,1.555,3.7c-.438.65-.71,1.011-.71,1.011l.013.014c-.355.492-.736,1.025-1.16,1.545a45.712,45.712,0,0,0-3.505,4.653,1.31,1.31,0,0,0,.328,1.695,2.833,2.833,0,0,0,1.827.319,8.006,8.006,0,0,0,2.742-.664,9.039,9.039,0,0,0,2.361-1.314A5.713,5.713,0,0,0,50.9,48.493a10.415,10.415,0,0,0-.859-3.483c.136-.2.267-.4.395-.607a67.242,67.242,0,0,0,4.092-7.483,26.35,26.35,0,0,0,.723,3.192,22.04,22.04,0,0,0,1.334,3.178,13.652,13.652,0,0,0-3.993,5.429c-.859,2.63-.192,3.814,1.067,4.088a3.623,3.623,0,0,0,1.993-.432A8.9,8.9,0,0,0,58.175,51a6.066,6.066,0,0,0,2.782-4.884,9.69,9.69,0,0,0-.627-2.89,13.551,13.551,0,0,1,7.245-.881c6.493.808,7.776,5.1,7.531,6.907a4.572,4.572,0,0,1-2.059,3.09c-.451.3-.6.4-.56.621.053.319.267.3.654.246a5.319,5.319,0,0,0,3.553-4.774c.205-4.237-3.615-8.884-10.369-8.842Zm-50.1,17.876c-2.155,2.486-5.157,3.424-6.453,2.63-1.393-.847-.846-4.52,1.8-7.153a34.592,34.592,0,0,1,5.069-4c.315-.2.779-.492,1.334-.847l.149-.088h0l.328-.218a10.285,10.285,0,0,1-2.228,9.678Zm15.689-11.3c-.75,1.935-2.318,6.893-3.273,6.616-.819-.232-1.334-3.989-.163-7.7a17.834,17.834,0,0,1,2.55-4.955c1.174-1.387,2.47-1.85,2.782-1.285a26.787,26.787,0,0,1-1.9,7.325Zm12.946,6.559c-.315.172-.614.282-.75.2-.1-.057.136-.282.136-.282s1.625-1.85,2.265-2.686c.368-.492.8-1.068,1.27-1.72v.186c0,2.209-2.019,3.7-2.918,4.305Zm9.988-2.412c-.232-.172-.192-.751.587-2.557a9.575,9.575,0,0,1,2.225-3.034,4.447,4.447,0,0,1-2.809,5.593Z" transform="translate(642.708 2749.894)" fill="#b2b2b2"/><g transform="translate(924.708 2841.396)" fill="#fff" stroke="#707070" stroke-width="1" opacity="0.004"><rect width="85" height="66" stroke="none"/><rect x="0.5" y="0.5" width="84" height="65" fill="none"/></g><g transform="translate(1562.708 2834.396) rotate(-90)" fill="#fff" stroke="#707070" stroke-width="1" opacity="0.004"><rect width="85" height="154" stroke="none"/><rect x="0.5" y="0.5" width="84" height="153" fill="none"/></g><g transform="translate(240.708 2834.396) rotate(-90)" fill="#fff" stroke="#707070" stroke-width="1" opacity="0.004"><rect width="85" height="154" stroke="none"/><rect x="0.5" y="0.5" width="84" height="153" fill="none"/></g><path d="M29.326,0a10.727,10.727,0,0,0-5.5,1.6l-17.1,10.56a11.408,11.408,0,0,0-5.412,9.7V43.4a11.081,11.081,0,0,0,5.546,9.589l17.4,10.016a10.41,10.41,0,0,0,10.289.048l18.9-10.641A10.241,10.241,0,0,0,58.659,43.5V20.8a9.578,9.578,0,0,0-4.76-8.274L34.861,1.452A10.727,10.727,0,0,0,29.326,0Zm.059,4.491a6.253,6.253,0,0,1,3.22.845L51.641,16.409A5.058,5.058,0,0,1,54.163,20.8V43.5a5.726,5.726,0,0,1-2.922,5L32.347,59.141a5.9,5.9,0,0,1-5.846-.027L9.1,49.1a6.565,6.565,0,0,1-3.295-5.7V21.856A6.9,6.9,0,0,1,9.083,15.98L26.19,5.422a6.233,6.233,0,0,1,3.193-.931ZM16.775,14.8V49.287h7.217V34.208H35.959V49.287h7.233V14.8H35.959V27.364H23.992V14.8Z" transform="translate(1504.098 2752.396)" fill="#b2b2b2"/><g transform="translate(924.708 2742.396)" fill="#fff" stroke="#707070" stroke-width="1" opacity="0.004"><rect width="85" height="9" stroke="none"/><rect x="0.5" y="0.5" width="84" height="8" fill="none"/></g></g></svg>